<?xml version="1.0" ?><svg data-name="Layer 2" id="Layer_2" viewBox="0 0 16 16" xmlns="http://www.w3.org/2000/svg"><title/><path d="M1,7.5A.5.5,0,0,0,.5,8v5A2.5023,2.5023,0,0,0,3,15.5H4A2.5023,2.5023,0,0,0,6.5,13V3A1.5017,1.5017,0,0,1,8,1.5H9A1.5017,1.5017,0,0,1,10.5,3V6A2.5023,2.5023,0,0,0,13,8.5h2a.5.5,0,0,0,0-1H13A1.5017,1.5017,0,0,1,11.5,6V3A2.5023,2.5023,0,0,0,9,.5H8A2.5023,2.5023,0,0,0,5.5,3V13A1.5017,1.5017,0,0,1,4,14.5H3A1.5017,1.5017,0,0,1,1.5,13V8A.5.5,0,0,0,1,7.5Z"/><path d="M12.6465,10.3535a.5.5,0,0,0,.707,0l2-2a.5.5,0,0,0,0-.707l-2-2a.5.5,0,0,0-.707.707L14.293,8,12.6465,9.6465A.5.5,0,0,0,12.6465,10.3535Z"/></svg>